<svg width="16" height="14" viewBox="0 0 16 14" fill="none" xmlns="http://www.w3.org/2000/svg">
<path d="M7.29289 0.292893C7.68342 -0.0976311 8.31658 -0.0976311 8.70711 0.292893L15.0711 6.65685C15.4616 7.04738 15.4616 7.68054 15.0711 8.07107C14.6805 8.46159 14.0474 8.46159 13.6569 8.07107L8 2.41421L2.34315 8.07107C1.95262 8.46159 1.31946 8.46159 0.928932 8.07107C0.538408 7.68054 0.538408 7.04738 0.928932 6.65685L7.29289 0.292893ZM7 2V1H9V2H7Z" fill="#009624"/>
<path d="M7.29289 5.29289C7.68342 4.90237 8.31658 4.90237 8.70711 5.29289L15.0711 11.6569C15.4616 12.0474 15.4616 12.6805 15.0711 13.0711C14.6805 13.4616 14.0474 13.4616 13.6569 13.0711L8 7.41421L2.34315 13.0711C1.95262 13.4616 1.31946 13.4616 0.928932 13.0711C0.538408 12.6805 0.538408 12.0474 0.928932 11.6569L7.29289 5.29289ZM7 7V6H9V7H7Z" fill="#009624"/>
</svg>
